<?xml version="1.0" encoding="utf-8"?>
<!-- Generator: Adobe Illustrator 23.0.6, SVG Export Plug-In . SVG Version: 6.00 Build 0)  -->
<svg version="1.1" xmlns="http://www.w3.org/2000/svg" xmlns:xlink="http://www.w3.org/1999/xlink" x="0px" y="0px"
	 viewBox="0 0 1600 600" style="enable-background:new 0 0 1600 600;" xml:space="preserve">
<style type="text/css">
	.st0{fill:#EB8B23;}
</style>
<g id="Layer_2">
</g>
<g id="Layer_1">
</g>
<g id="Layer_8">
</g>
<g id="Layer_9">
</g>
<g id="Layer_7">
</g>
<g id="Layer_6">
</g>
<g id="Layer_4">
</g>
<g id="Layer_5">
	<g>
		<g>
			<g>
				<g>
					<path class="st0" d="M287,62.6c56.6,0,110.4,19.2,155.7,55.4c28.8,23,47.6,45.5,53.2,52.6c1,1.3,0.9,3.2-0.3,4.3l-16,15.8
						c-1.4,1.4-3.6,1.3-4.8-0.2c-6.4-7.9-25.9-31-50.9-50.8c-40.5-32.1-86.5-48.4-136.9-48.4c-49.9,0-94.7,18.3-132.9,54.4
						c-16.7,15.8-26.4,28.4-33.1,38.6c-0.9,1.4-0.6,3.3,0.7,4.3l13.8,11c1.5,1.2,3.7,0.8,4.7-0.7c6.2-9.1,14.3-19.2,27.2-31.6
						c34.9-33.6,77-51.4,121.9-51.4c97.2,0,158.5,78,169,92.4c1,1.3,0.8,3.1-0.4,4.2l-53.3,52.8c-1.3,1.3-3.5,1.3-4.8-0.2
						c-11-12.8-60.8-67.3-110.6-67.3c-22.7,0-44.8,10.9-65.9,32.5c-7.3,7.5-13.2,14.9-17.4,20.9c-1,1.4-0.7,3.4,0.7,4.4l92.1,72.5
						c1.4,1.1,1.7,3.2,0.6,4.6l-13.7,17.4c-1.1,1.4-3.2,1.7-4.6,0.6l-112-88.1c-1.3-1-1.7-2.8-0.8-4.2
						c8.6-14.6,56.1-89.2,121.1-89.2c50.8,0,92.4,34.1,112.4,54.1c1.3,1.3,3.3,1.3,4.6,0l13.8-13.7c1.2-1.2,1.3-3.2,0.2-4.5
						c-6-6.8-15-15.9-26.8-24.9c-31-23.6-66.1-35.6-104.2-35.6c-80.8,0-130.8,79.8-140.7,97.2c-1,1.7-3.3,2.2-4.9,1L84.4,196
						c-1.2-1-1.6-2.7-0.9-4.1c4.7-8.8,22.5-40.1,50.1-66.4C176.9,84.4,230,62.6,287,62.6z"/>
				</g>
				<g>
					<path class="st0" d="M292.9,537.4c-56.6,0-110.4-19.2-155.7-55.4c-28.8-23-47.6-45.5-53.2-52.6c-1-1.3-0.9-3.2,0.3-4.3l16-15.8
						c1.4-1.4,3.6-1.3,4.8,0.2c6.4,7.9,25.9,31,50.9,50.8c40.5,32.1,86.5,48.4,136.9,48.4c49.9,0,94.7-18.3,132.9-54.4
						c16.7-15.8,26.4-28.4,33.1-38.6c0.9-1.4,0.6-3.3-0.7-4.3l-13.8-11c-1.5-1.2-3.7-0.8-4.7,0.7c-6.2,9.1-14.3,19.2-27.2,31.6
						c-34.9,33.6-77,51.4-121.9,51.4c-97.2,0-158.5-78-169-92.4c-1-1.3-0.8-3.1,0.4-4.2l53.3-52.8c1.3-1.3,3.5-1.3,4.8,0.2
						c11,12.8,60.8,67.3,110.6,67.3c22.7,0,44.8-10.9,65.9-32.5c7.3-7.5,13.2-14.9,17.4-20.9c1-1.4,0.7-3.4-0.7-4.4L281,271.9
						c-1.4-1.1-1.7-3.2-0.6-4.6l13.7-17.4c1.1-1.4,3.2-1.7,4.6-0.6l112,88.1c1.3,1,1.7,2.8,0.8,4.2c-8.6,14.6-56.1,89.2-121.1,89.2
						c-50.8,0-92.4-34.1-112.4-54.1c-1.3-1.3-3.3-1.3-4.6,0l-13.8,13.7c-1.2,1.2-1.3,3.2-0.2,4.5c6,6.8,15,15.9,26.8,24.9
						c31,23.6,66.1,35.6,104.2,35.6c80.8,0,130.8-79.8,140.7-97.2c1-1.7,3.3-2.2,4.9-1l59.4,46.7c1.2,1,1.6,2.7,0.9,4.1
						c-4.7,8.8-22.5,40.1-50.1,66.4C403,515.6,350,537.4,292.9,537.4z"/>
				</g>
			</g>
			<g>
				<g>
					<path d="M616,154.6c-1.3-4.8-3.7-8.6-8.4-8.6c-3.6,0-5.9,2.1-5.9,5.4c0,13.9,31.3,12,31.3,38.3c0,14.2-9.9,22.3-25.4,22.3
						c-15,0-22.4-6.7-24.9-21.3l16.8-3.2c0.8,6.1,3.3,9.8,8.9,9.8c4,0,7.1-2.1,7.1-6.3c0-14.5-31.4-12.6-31.4-38.9
						c0-12.2,8.9-20.5,23.2-20.5c14.9,0,21.4,7.5,24.4,19.9L616,154.6z"/>
					<path d="M692.5,210.9l-3-16.9h-14.9l-2.7,16.9h-18.6l16.8-78.5H694l17.3,78.5H692.5z M677.2,178.5h9.7l-4.8-28.2h-0.3
						L677.2,178.5z"/>
					<path d="M746.8,210.9l-18-78.5h19.8l8.7,51.9h0.2l9.6-51.9h19.6l-18.5,78.5H746.8z"/>
					<path d="M813.5,210.9v-78.5h44v15.8h-25.8v14.6h19.3v15.4h-19.3v16.7h26.8v15.8H813.5z"/>
					<path d="M888.4,210.9v-78.5h21.7c21.2,0,32,10.3,32,38.1c0,25.2-8.5,40.3-31.7,40.3H888.4z M911.5,194.4c8.6,0,12-7.9,12-23.5
						c0-17.2-4.4-22-12.1-22h-4.3v45.5H911.5z"/>
					<path d="M1016.7,210.9v-78.5h22.5c19,0,27.3,6.2,27.3,20.8c0,7.9-3.5,13.6-10.2,16.5v0.2c7.7,2.6,11.8,8.1,11.8,17.9
						c0,18.8-12.9,23.1-28.9,23.1H1016.7z M1040.2,163.6c4.9,0,7.8-2.4,7.8-8.3c0-5.6-3.2-7.2-7.8-7.2h-5.6v15.5H1040.2z
						 M1040.6,195.3c6.7,0,9-2.7,9-8.9c0-6.7-3.6-8.9-8.9-8.9h-6.1v17.7H1040.6z"/>
					<path d="M1108.3,210.9v-30.4l-19.5-48.1h19.2l9.3,27.9h0.2l9.8-27.9h19l-19.7,48.1v30.4H1108.3z"/>
				</g>
				<g>
					<path d="M564.8,422.4h121.1c15,0,15.6-9.7,15.6-15c0-7.5-3.7-13.7-16.8-17.8L599.1,364c-28.4-8.4-36.8-30.6-36.8-61.2
						c0-32.8,14.4-55.2,50.5-55.2h134.8v43.7h-113c-8.1,0-15.3,3.1-15.3,14.4c0,8.4,4.4,14.4,17.5,18.4l76.8,22.5
						c32.5,9.4,45.2,25.6,45.2,61.5c0,34.6-12.8,58-49.9,58H564.8V422.4z"/>
					<path d="M779.2,466V281.3c0-23.4,12.8-33.7,33.1-33.7h116.1c48.4,0,59,30.3,59,74s-10.6,74.6-59,74.6h-93V466H779.2z
						 M899.3,352.5c23.4,0,30.6-9.1,30.6-30.9c0-21.8-7.2-30.3-30.6-30.3H850c-10.9,0-14.7,3.7-14.7,14.7v46.5H899.3z"/>
					<path d="M1233.5,356.8c0,91.1-30.3,111.7-116.1,111.7c-85.8,0-116.1-20.6-116.1-111.7c0-90.8,30.3-111.7,116.1-111.7
						C1203.3,245.1,1233.5,266,1233.5,356.8z M1117.5,424.8c45.6,0,58.7-16.5,58.7-68s-13.1-68-58.7-68c-45.6,0-58.7,16.5-58.7,68
						S1071.9,424.8,1117.5,424.8z"/>
					<path d="M1319.4,466V291.3h-81.1v-43.7h218.4v43.7h-81.1V466H1319.4z"/>
				</g>
			</g>
		</g>
		<g>
			<path d="M1482,274v-21.5h-6.9v-4.9h19.6v4.9h-6.9V274H1482z M1519.6,274v-18.8h-0.1l-5.2,18.8h-5l-5.4-18.8h-0.1V274h-5.5v-26.4
				h8.2l5.2,18.4h0.1l5.4-18.4h8V274H1519.6z"/>
		</g>
	</g>
</g>
</svg>
