<?xml version="1.0" encoding="UTF-8" standalone="no"?>
<svg
   version="1.1"
   width="612pt"
   height="792pt"
   id="svg1"
   viewBox="0 0 612 792"
   sodipodi:docname="teltonika-seeklogo.cdr"
   xmlns:inkscape="http://www.inkscape.org/namespaces/inkscape"
   xmlns:sodipodi="http://sodipodi.sourceforge.net/DTD/sodipodi-0.dtd"
   xmlns="http://www.w3.org/2000/svg"
   xmlns:svg="http://www.w3.org/2000/svg">
  <defs
     id="defs1" />
  <sodipodi:namedview
     id="namedview1"
     pagecolor="#ffffff"
     bordercolor="#000000"
     borderopacity="0.25"
     inkscape:showpageshadow="2"
     inkscape:pageopacity="0.0"
     inkscape:pagecheckerboard="0"
     inkscape:deskcolor="#d1d1d1"
     inkscape:document-units="pt" />
  <path
     d="m 215.7665,221.9592 -3.0876,9.397 h -11.4525 l -8.6322,26.3512 h -11.5524 l 8.6322,-26.3512 h -11.8028 l 3.088,-9.397 z m 33.957,0 -2.8084,8.5515 h -18.1539 l -1.5305,4.7733 h 15.3034 l -2.7053,8.2038 h -15.3034 l -1.7941,5.5185 h 18.8538 l -2.8317,8.7011 h -30.4559 l 11.7197,-35.7482 z m 26.1399,26.2518 -3.1028,9.4964 h -28.3057 l 11.72,-35.7482 h 11.5521 l -8.6165,26.2518 z m 42.024,-26.2518 -3.0876,9.397 h -11.4525 l -8.6318,26.3512 h -11.5528 l 8.6325,-26.3512 h -11.8031 l 3.0884,-9.397 z m 35.5814,13.5735 c -0.1624,1.0605 -0.304,1.8229 -0.4252,2.287 -0.1207,0.464 -0.3329,1.1435 -0.6365,2.0383 -1.9545,5.8009 -5.1559,10.3833 -9.6047,13.7475 -4.4489,3.3643 -9.6072,5.0465 -15.4751,5.0465 -5.0344,0 -8.7613,-1.3007 -11.1802,-3.903 -2.419,-2.6018 -3.2817,-6.1735 -2.5866,-10.7145 0.1825,-1.1933 0.5286,-2.5854 1.0388,-4.1765 1.9056,-5.701 5.1214,-10.267 9.6469,-13.6979 4.5258,-3.4304 9.6725,-5.1459 15.4401,-5.1459 5.0344,0 8.7637,1.2847 11.1879,3.8532 2.4245,2.569 3.2893,6.1242 2.5946,10.6653 z m -11.7815,0.8451 c 0.2992,-1.9557 0.1272,-3.4474 -0.5158,-4.4749 -0.7745,-1.2594 -2.2448,-1.8891 -4.4123,-1.8891 -2.7334,0 -5.0192,0.9943 -6.8573,2.9828 -1.4435,1.5911 -2.6604,3.8785 -3.6503,6.8614 -0.1861,0.5635 -0.3586,1.1435 -0.5162,1.7403 -0.158,0.5968 -0.2803,1.1768 -0.3662,1.7403 -0.2992,1.9557 -0.1271,3.4469 0.5154,4.4745 0.7745,1.2598 2.2449,1.8895 4.4123,1.8895 2.7005,0 4.9699,-0.9943 6.8076,-2.9833 1.4768,-1.5911 2.7106,-3.8781 3.7001,-6.8613 0.4468,-1.3922 0.7408,-2.5521 0.8827,-3.4802 z m 56.6171,-14.4186 -11.7205,35.7482 h -10.952 l -5.0765,-16.507 c -0.0181,-0.0995 -0.2062,-1.1599 -0.5631,-3.1818 -0.1091,-0.5968 -0.2435,-1.243 -0.4039,-1.9392 l -0.0911,0.5968 c -0.2029,1.3256 -0.5543,2.751 -1.0544,4.2755 l -5.4636,16.7557 h -10.9524 l 11.7201,-35.7482 h 10.9524 l 5.0107,16.6061 c 0.1164,0.3317 0.1926,0.7043 0.2291,1.1186 0.0369,0.4143 0.0746,0.8206 0.1139,1.2185 l 0.6241,2.7839 0.0914,-0.5964 c 0.1925,-1.2598 0.5443,-2.6848 1.0544,-4.2759 l 5.529,-16.8548 z m 19.2035,0 -11.7197,35.7482 h -11.8027 l 11.7201,-35.7482 z m 45.0097,0 -18.4194,13.1756 8.4998,22.5726 h -14.2032 l -5.2606,-14.3191 -4.7998,2.9332 -3.7425,11.3859 h -11.402 l 11.7196,-35.7482 h 11.4029 l -3.8609,11.8332 16.1633,-11.8332 z m 27.3375,35.7482 H 478.403 l 0.0722,-4.7231 h -13.4027 l -3.0731,4.7231 h -11.3021 l 25.4231,-35.7482 h 11.702 z m -11.1814,-12.231 -0.3562,-12.3803 -8.4452,12.3803 z m -363.8922,19.4473 0.0132,-0.0128 -27.3748,-27.3748 0.0301,-0.0301 -0.0177,-0.0172 26.9637,-27.7819 -0.0144,-0.0117 11.2961,-11.6422 11.6162,11.2716 10.3709,-10.6877 11.4305,11.0912 11.1397,-11.4806 11.6423,11.2969 -11.2982,11.6391 -9.4555,-9.174 -24.915,25.6722 25.2832,25.2827 9.3163,-9.3159 11.4699,11.4698 -11.4699,11.4698 -11.4698,-11.4698 0.0133,-0.0133 -27.3744,-27.3744 0.03,-0.0305 -0.0172,-0.0164 15.8216,-16.3025 -9.2587,-8.9827 -24.9145,25.6722 25.2831,25.2828 9.3156,-9.3156 11.4698,11.4698 -11.469,11.4694 -11.2853,-11.2853 -10.7017,10.7018 z m 11.2287,-43.9464 -9.4435,-9.1615 -24.915,25.671 25.2832,25.2835 8.5611,-8.5607 -16.0895,-16.0895 0.0305,-0.0305 -0.018,-0.0172 z"
     style="fill:#1761ab;fill-rule:evenodd"
     id="path1" />
</svg>
