<?xml version="1.0" encoding="UTF-8"?>
<svg width="145px" height="54px" version="1.1" viewBox="0 0 145 54" xmlns="http://www.w3.org/2000/svg">
 <path d="m140.98 20.9 2.8282-11.887-11.883-5.4723s-0.0446-0.03-0.0595 0c-0.0278 0.044 0.0298 0.058 0.0298 0.058 5.7003 3.3316 9.8473 10.947 9.0264 17.301 0 0 0.0149 0.072 0.0581 0m-22.155-20.044c6.5349 2.4935 18.375 12.692 9.5984 23.814l4.5713 2.3924c8.0733-8.2763 2.9744-21.57-14.141-26.267h-0.0552c-7e-3 0-0.0135 0.01-0.0172 0.016-0.0143 0.029 0.044 0.044 0.044 0.044m-4.6748 3.5801c3.3416 0.7332 14.185 7.395 4.4394 15.07l4.8809 2.5677c10.14-11.797-5.0703-17.564-9.3049-17.712 0 0-0.11702 0.015-0.0155 0.074m30.672 47.737v-4.2067c-1.6176 0.989-2.5194 1.3453-3.4439 1.3453-1.49 0-2.0376-1.1768-2.0376-2.8798v-7.7594h5.2091v-3.5956h-5.2091v-5.6563h-0.98514l-7.3291 8.5369v0.715h2.6239v8.8319c0 4.6687 3.2329 6.203 6.0461 6.203 1.6196 0 2.9633-0.4001 5.1257-1.5343m-22.363-7.9282c-3.0456 1.1145-4.6208 2.0604-4.6208 3.6801 0 1.156 0.77731 1.9341 1.9746 1.9341 0.90158 0 1.4065-0.2307 2.6462-1.2187zm6.2351 5.1515c0.4002 0 0.90413-0.2101 1.6593-0.715v3.2383c-2.0171 1.2414-3.3597 1.7451-4.7459 1.7451-1.7002 0-2.6462-0.8192-2.9186-2.5219-1.9319 1.8491-3.3599 2.5643-5.2919 2.5643-2.6452 0-4.7034-1.9761-4.7034-4.5844 0-3.7634 4.0318-5.5098 9.7653-7.4017v-0.6302c0-1.7465-0.71528-2.5025-2.2895-2.5025-1.9746 0-3.8008 0.7995-6.2572 2.7742v-4.1621c2.5406-1.8085 4.6191-2.4813 7.6007-2.4813 3.5071 0 6.6361 1.1358 6.6361 5.2573v7.4432c0 1.7456 0.0622 1.9767 0.54502 1.9767m-30.972-1.4714v4.2481c2.4155 1.0937 4.3038 1.5343 6.194 1.5343 3.9891 0 6.803-2.4608 6.803-5.93 0-6.2237-8.9027-5.6987-8.9027-8.1586 0-0.7995 0.84052-1.3036 2.2249-1.3036 0.86087 0 1.7437 0.1256 2.6897 0.3996 0.98593 0.3154 2.0145 0.756 3.2746 1.4302v-3.7649c-2.058-1.157-3.9482-1.6609-5.9208-1.6609-3.9073 0-6.6778 2.3759-6.6778 5.8031 0 5.7406 8.253 5.2357 8.253 7.7171 0 1.0313-0.86166 1.5988-2.1006 1.5988-1.7429 0-3.5488-0.6096-5.8373-1.9132m-15.014-12.848v18.273h5.6901v-2.8183c0-5.026 1.3452-10.429 4.3484-10.429 0.71331 0 1.4891 0.3136 2.3711 0.9035l1.2184-5.0683c-1.1554-0.715-2.246-1.0723-3.2754-1.0723-2.1858 0-3.8008 2.2926-5.0193 7.1283h-0.0826v-6.9172h-5.2508m-10.479 9.168c-3.0456 1.1145-4.6192 2.0604-4.6192 3.6801 0 1.156 0.79805 1.9341 1.973 1.9341 0.90335 0 1.4278-0.2307 2.6462-1.2187zm6.2574 5.1515c0.37789 0 0.90334-0.2101 1.6593-0.715v3.2383c-2.0163 1.2414-3.3596 1.7451-4.7455 1.7451-1.7016 0-2.6462-0.8192-2.9412-2.5219-1.9308 1.8491-3.337 2.5643-5.2903 2.5643-2.6468 0-4.704-1.9761-4.704-4.5844 0-3.7634 4.032-5.5098 9.7642-7.4017v-0.6302c0-1.7465-0.7141-2.5025-2.2895-2.5025-1.9724 0-3.7995 0.7995-6.2363 2.7742v-4.1621c2.5192-1.8085 4.6204-2.4813 7.5812-2.4813 3.5063 0 6.6357 1.1358 6.6357 5.2573v7.4432c0 1.7456 0.0828 1.9767 0.56635 1.9767m-46.785-14.32v18.273h5.6907v-11.713c1.0499-1.8297 2.0151-2.6907 3.1912-2.6907 1.4278 0 2.1417 1.3877 2.1417 3.6377v10.766h5.6913v-11.859c0.98651-1.7034 2.0783-2.5448 3.3177-2.5448 1.7638 0 2.0155 1.5762 2.0155 4.4784v9.9256h5.6907v-12.154c0-4.6262-3.212-6.4772-5.9001-6.4772-2.4777 0-4.3048 1.2189-5.5649 3.7216-0.8826-2.3759-2.6881-3.7216-5.1028-3.7216-2.1202 0-3.9061 0.988-5.4169 3.1542h-0.0634v-2.7965h-5.6907m-21.02 0v18.273h5.6911v-11.544c0.73524-1.9139 1.764-2.9445 3.1085-2.9445 1.5949 0 2.2247 1.2836 2.2247 3.3016v11.187h5.6913v-12.113c0-4.2265-2.3312-6.5177-5.8165-6.5177-2.1413 0-3.8012 0.9459-5.1443 2.9229h-0.0636v-2.5652h-5.6911m-4.2001-5.868c0-1.7448-1.3857-3.1115-3.1073-3.1115-1.7425 0-3.1703 1.3667-3.1703 3.1115 0 1.7455 1.4278 3.1759 3.1703 3.1759 1.7216 0 3.1073-1.4304 3.1073-3.1759m-6.005 5.868h5.6915v18.273h-5.6915z"/>
</svg>
