<?xml version="1.0" encoding="UTF-8" standalone="no"?>
<!-- Created with Inkscape (http://www.inkscape.org/) -->

<svg
   width="95.389999mm"
   height="22.919001mm"
   viewBox="0 0 95.389999 22.919001"
   version="1.1"
   id="svg5"
   inkscape:version="1.1 (c68e22c387, 2021-05-23)"
   sodipodi:docname="圖畫.svg"
   xmlns:inkscape="http://www.inkscape.org/namespaces/inkscape"
   xmlns:sodipodi="http://sodipodi.sourceforge.net/DTD/sodipodi-0.dtd"
   xmlns="http://www.w3.org/2000/svg"
   xmlns:svg="http://www.w3.org/2000/svg">
  <sodipodi:namedview
     id="namedview7"
     pagecolor="#ffffff"
     bordercolor="#666666"
     borderopacity="1.0"
     inkscape:pageshadow="2"
     inkscape:pageopacity="0.0"
     inkscape:pagecheckerboard="0"
     inkscape:document-units="mm"
     showgrid="false"
     inkscape:zoom="1.8973437"
     inkscape:cx="271.95916"
     inkscape:cy="126.22911"
     inkscape:window-width="1920"
     inkscape:window-height="1017"
     inkscape:window-x="-8"
     inkscape:window-y="-8"
     inkscape:window-maximized="1"
     inkscape:current-layer="layer1" />
  <defs
     id="defs2" />
  <g
     inkscape:label="圖層 1"
     inkscape:groupmode="layer"
     id="layer1">
    <g
       id="g959"
       transform="matrix(0.26458333,0,0,0.26458333,-2.4765,-6.277901)">
      <path
         d="m 283.1,38.43 2.18,-1.72 3.53,-2.89 a 1.33,1.33 0 0 0 -0.16,-0.17 h -0.06 l -0.18,-0.15 q -1.77,1.39 -3.44,2.68 l -2.9,2.19 a 118.87,118.87 0 0 0 -39.81,3 c -20.67,5 -32,15 -30.77,21.55 1.72,8.77 19.08,6.92 34.44,-0.73 A 218.06,218.06 0 0 0 276.51,43.4 c 35.21,3.55 62.42,24.47 62.42,24.47 l 5.34,-10 C 320.49,46.23 300.85,40.26 283.1,38.43 Z m -30.86,18.42 c -38.86,19.87 -49.56,-0.18 -8.74,-11 a 91.69,91.69 0 0 1 31.69,-2.57 188.92,188.92 0 0 1 -22.95,13.57 z"
         fill="#f7921e"
         id="path862" />
      <path
         d="m 245.66,75.46 h 6 V 63.55 h 7.79 v 11.91 h 11.75 v 6.66 h -11.73 v 16 c 0,2.39 0.94,5 5.47,5 a 31.15,31.15 0 0 0 6.65,-1 V 109 a 58.47,58.47 0 0 1 -8.41,0.75 c -7.42,0 -11.5,-2.39 -11.5,-9.79 V 82.12 h -6 z m 68.17,0.04 h 7.78 v 5 h 0.19 c 1.69,-2.77 5.08,-6.16 11.81,-6.16 a 17.53,17.53 0 0 1 2.76,0.13 v 8.41 a 16.85,16.85 0 0 0 -4.77,-0.63 c -9.93,0.07 -9.93,6.66 -10,9 v 17.9 h -7.78 z m -76.09,10.34 c -1.19,-1.57 -3.89,-5.28 -11,-5.28 -5.64,0 -7.52,2.2 -7.52,4.08 0,2.63 3.26,3.07 7.9,3.7 9.21,1.19 17.61,2.57 17.61,10.9 0,9.9 -11.34,11 -16.79,11 -11.61,0 -15.24,-4.63 -18.12,-8.2 l 6.58,-3.83 c 2.7,4.39 7.4,5.76 12.28,5.76 4.14,0 7.9,-1.25 7.9,-4.2 0,-2.56 -1.88,-2.82 -10.15,-3.94 -12.7,-1.6 -15.33,-5.67 -15.33,-10.83 0,-3.5 2.77,-10.72 15.86,-10.72 3.82,0 12.16,0.88 17.24,8 z M 198.81,63.6 h 7.79 v 45.62 h -7.79 z M 117.25,63.55 H 125 V 79 c 3.33,-2.38 6.47,-4.64 12.94,-4.64 11.11,0 18.08,7.53 18.08,17.77 0,11.43 -8.22,18.21 -17.77,18.21 a 17.64,17.64 0 0 1 -13.38,-5.46 v 4.33 h -7.66 z M 125,98.78 c 3,2.32 6.16,4.9 11.49,4.9 6,0 11.62,-3.89 11.62,-11.31 0,-7.6 -5.9,-11.37 -11.87,-11.37 -5.65,0 -8.85,2.71 -11.24,4.65 z M 64.11,63.55 h 7.78 v 45.68 h -7.78 z m 11.57,28.71 c 0,-9.05 5.46,-18 18.9,-18 13.44,0 18.89,8.92 18.89,18 0,13.43 -9.66,18 -18.89,18 -9.23,0 -18.9,-4.57 -18.9,-18 z m 29.89,-0.13 c 0,-7.91 -5.09,-11.18 -11,-11.18 -5.91,0 -11,3.27 -11,11.18 0,7.16 4,11.49 11,11.49 7,0 11,-4.33 11,-11.49 z M 35.05,85.69 v 7.16 h 16 c -2.13,6.41 -7,9.49 -15.82,9.49 -9.67,0 -17,-5.53 -17,-16.33 0,-6.35 3.39,-16 17.71,-16 10.49,0 12.94,5.39 14,7.72 H 59.1 C 56.9,66.23 45.41,62.33 34.92,62.33 16.71,62.33 9.36,74.2 9.36,86.39 c 0,18.14 14.13,23.86 25.81,23.86 a 27.68,27.68 0 0 0 16.46,-4.93 v 3.91 h 7.78 V 85.69 Z m 151.28,-10.3 a 30.31,30.31 0 0 0 -8.79,-1.1 c -6.28,0 -15.26,1.57 -17.14,10.74 h 8.1 c 0.43,-1.82 1.94,-4.45 9.1,-4.45 6.4,0 8.73,1.82 8.73,4.39 v 1.51 c -10.87,0.63 -27.82,2.26 -27.82,13.62 0,8.29 8.6,10.17 13.06,10.17 6.66,0 11.49,-2.63 14.76,-4.51 v 3.47 h 7.79 V 86.86 c 0,-3.6 -0.21,-9.13 -7.79,-11.47 z m -13.63,28.86 c -3.83,0 -5.72,-1.82 -5.65,-4.71 0.07,-2.89 2.33,-4.59 7.16,-5.71 a 62,62 0 0 1 12.12,-1.7 v 7.72 c -3.02,1.82 -7.72,4.4 -13.63,4.4 z M 301.35,75.39 a 30.27,30.27 0 0 0 -8.79,-1.1 c -6.28,0 -15.26,1.57 -17.14,10.74 h 8.1 c 0.43,-1.82 1.94,-4.45 9.1,-4.45 6.41,0 8.73,1.82 8.73,4.39 v 1.51 c -10.87,0.63 -27.82,2.26 -27.82,13.62 0,8.29 8.61,10.17 13.06,10.17 6.66,0 11.49,-2.63 14.76,-4.51 v 3.47 h 7.79 V 86.86 c 0,-3.6 -0.2,-9.13 -7.79,-11.47 z m -13.63,28.86 c -3.83,0 -5.71,-1.82 -5.65,-4.71 0.06,-2.89 2.33,-4.59 7.16,-5.71 a 62,62 0 0 1 12.12,-1.7 v 7.72 c -3.02,1.82 -7.72,4.4 -13.63,4.4 z m 11.12,-74 a 10.3,10.3 0 0 1 -5,-1.38 10.32,10.32 0 0 1 -1.39,-5 c 0,-0.19 -0.38,-0.19 -0.39,0 a 10.31,10.31 0 0 1 -1.38,5 10.31,10.31 0 0 1 -5,1.38 c -0.1,0 -0.18,0.12 -0.18,0.22 a 0.18,0.18 0 0 0 0.18,0.17 c 2.36,0.13 4.56,0.9 5,1.39 a 10.31,10.31 0 0 1 1.38,5 0.18,0.18 0 0 0 0.18,0.17 v 0 a 0.18,0.18 0 0 0 0.18,-0.17 10.29,10.29 0 0 1 1.39,-5 c 0.48,-0.49 2.69,-1.26 5,-1.39 0.1,0 0.17,-0.12 0.17,-0.21 a 0.17,0.17 0 0 0 -0.14,-0.18 z m 70.94,36.26 c -7.35,-0.38 -18.76,-2.89 -20.35,-4.48 -1.59,-1.59 -4.11,-13 -4.5,-20.37 a 0.1,0.1 0 0 0 -0.1,-0.1 h -0.12 a 0.11,0.11 0 0 0 -0.11,0.1 c -0.38,7.35 -2.89,18.77 -4.49,20.37 -1.6,1.6 -13,4.1 -20.36,4.48 a 0.1,0.1 0 0 0 -0.1,0.11 v 0.11 c 0,0.07 0,0.12 0.1,0.12 7.35,0.38 18.77,2.89 20.36,4.49 1.59,1.6 4.11,13 4.49,20.35 a 0.11,0.11 0 0 0 0.11,0.11 h 0.12 a 0.1,0.1 0 0 0 0.1,-0.11 c 0.39,-7.35 2.9,-18.76 4.5,-20.35 1.6,-1.59 13,-4.11 20.35,-4.49 a 0.11,0.11 0 0 0 0.11,-0.12 v -0.11 a 0.11,0.11 0 0 0 -0.11,-0.11 z"
         fill="#58595b"
         id="path864" />
    </g>
  </g>
</svg>
