<?xml version="1.0" encoding="utf-8"?>
<!-- Generator: Adobe Illustrator 19.2.1, SVG Export Plug-In . SVG Version: 6.00 Build 0)  -->
<svg version="1.1" id="layer" xmlns="http://www.w3.org/2000/svg" xmlns:xlink="http://www.w3.org/1999/xlink" x="0px" y="0px"
	 viewBox="0 0 652 652" style="enable-background:new 0 0 652 652;" xml:space="preserve">
<style type="text/css">
	.st0{fill:#009FE8;}
	.st1{fill:#006EBA;}
	.st2{fill:#5C6670;}
</style>
<g>
	<path class="st0" d="M358.7,290.9l0.4-0.3c-14.2-16.8-31.7-33.9-51.8-50.1c-69.3-56.1-142.6-80.3-163.8-54
		c-13.9,17.1-2,51.6,27.3,89.1c4.9,6.7,10.4,13.5,16.5,20.4c-29.1-37.3-40.2-70.2-26.4-87.3c21.2-26.2,94-3.4,163.3,52.6
		c14.4,11.7,27.6,23.8,39.1,36l0.6-0.4C362.2,294.9,360.5,292.9,358.7,290.9"/>
	<path class="st1" d="M590.9,374.4c-4.4-5.8-9.2-11.7-14.4-17.5c29.1,37.4,39.2,70.2,25.3,87.3c-21.2,26.2-92.9,3.4-162.2-52.6
		c-16.2-13.1-29.8-25.9-42.6-39.3c2.9,3.5,5,6.1,8.1,9.7c-1.4-1.5-2.9-2.9-4.3-4.4c14.9,18.2,33.8,37,55.7,54.8
		c69.2,56.1,142.6,80.3,163.8,54C634.6,448.8,621.8,413,590.9,374.4"/>
</g>
<g>
	<path class="st2" d="M435.3,427.7c5.1,0,9.3,4.2,9.3,9.3c0,5.1-4.2,9.3-9.3,9.3c-5.1,0-9.3-4.2-9.3-9.3
		C426,431.9,430.2,427.7,435.3,427.7 M435.3,444.6c4.2,0,7.6-3.4,7.6-7.6c0-4.2-3.4-7.6-7.6-7.6c-4.2,0-7.6,3.4-7.6,7.6
		C427.6,441.2,431.1,444.6,435.3,444.6 M431.7,431.6h4.1c2.6,0,3.7,1.2,3.7,3.2c0,1.9-1.1,2.8-2.6,2.9l2.8,4.5h-2.1l-2.6-4.3h-1.4
		v4.3h-2V431.6z M433.7,436.2h1.4c1.2,0,2.5-0.1,2.5-1.5c0-1.4-1.3-1.5-2.5-1.5h-1.4V436.2z"/>
	<path class="st2" d="M225.5,386.6v14.8c-1-0.1-2.1-0.2-3.1-0.3c-2-0.2-4-0.5-6.1-0.5c-15.5,0-25.5,9.5-25.5,24.1
		c0,12.6,7.9,21.4,19.3,21.4c7.3,0,12.6-3.1,15.4-8.8v7.9h7.9v-58.5H225.5z M225.5,407.7v14.1c0,11.5-5,18.4-13.4,18.4
		c-8.1,0-13.4-6-13.4-15.2c0-4.3,1.4-18.4,19.1-18.4C220.3,406.5,222.9,406.9,225.5,407.7"/>
	<rect x="247.4" y="401.6" class="st2" width="7.9" height="43.5"/>
	<path class="st2" d="M292.9,401.1l-0.2,0c-1.1-0.3-2.2-0.4-3.4-0.4c-5.8,0-9.8,2.3-12.2,6.8v-5.9h-7.9v43.5h7.9v-24.5
		c0-6.6,3.9-13.6,11.2-13.6c1.6,0,3.3,0.5,4.9,1l0.4,0.1L292.9,401.1z"/>
	<path class="st2" d="M339.6,422.8v-4.3c0-11.4-7.1-17.9-19.5-17.9c-15.3,0-20.8,11.7-20.8,22.7c0,3.8,1.1,22.8,22.3,22.8
		c5.5,0,9.3-0.6,14.1-1.7l0.2,0l1.3-7.1l-0.4,0.2c-3.5,1.5-7.1,2.8-15.1,2.8c-13,0-14.4-11.8-14.4-16.9v-0.5H339.6z M307.6,417.7
		c1.1-7.6,6.1-12.1,13.4-12.1c6.7,0,10.6,4.4,10.7,12.1H307.6z"/>
	<path class="st2" d="M369.9,440.2c-13,0-14.4-11.8-14.4-16.9c0-10.8,5.1-16.8,14.4-16.8c4.4,0,8.3,1.2,11.6,2.2l0.4,0.1l-0.8-6.6
		l-0.2,0c-3.7-1.1-7.7-1.7-11-1.7c-14.8,0-22.3,7.6-22.3,22.7c0,3.8,1.1,22.8,22.3,22.8c3.2,0,6.9-0.4,10.7-1.2l0.2,0l0.9-6.8
		l-0.4,0.1C378.3,439,374.8,440,369.9,440.2"/>
	<path class="st2" d="M417.3,438.7c-2.1,0.5-4.1,1-6.2,1c-3.9,0-5.6-2.1-5.6-7.1v-25.1h11.7v-5.9h-11.7v-9.5l-7.9,1.7v7.8h-5.4v5.9
		h5.4v28c0,7.4,3.3,10.6,11.2,10.6c2.3,0,5-0.4,8-1.1l0.2,0l1-6.4L417.3,438.7z"/>
	<path class="st2" d="M63.3,323.1c-7.9-6-15.4-11.6-15.4-17.6c0-8.2,10.1-9.4,16.1-9.4c5.9,0,12.2,1.3,18.8,4l2,0.8l-2.4-15.7
		l-0.9-0.2c-5.7-1.1-13.2-2.3-20.9-2.3c-19.2,0-30.2,8.1-30.2,22.2c0,12.6,11.7,21.5,22,29.3c8.2,6.2,15.9,12,15.9,18.4
		c0,9.7-12.2,10.5-15.9,10.5c-7.3,0-14.8-1.7-24.5-5.6l-1.9-0.8l2.4,15.9l0.8,0.2c9.1,2.4,17.7,3.6,25.7,3.6
		c14.2,0,30.9-6,30.9-22.9C85.9,340.1,73.9,331.1,63.3,323.1"/>
	<path class="st2" d="M141.3,282.8c-10.3,0-20.9,1.5-32.7,4.6l-0.8,0.2l-2.2,15l2-0.9c10.5-4.9,21-7.3,32-7.3
		c7.4,0,19.6,1.5,19.6,11.3c0,9.7-12.2,12.7-26.3,16.2c-17.2,4.2-36.8,9.1-36.8,28.5c0,16.8,11.4,26.1,32.1,26.1
		c9.4,0,15.5-0.9,20.2-1.8l0.8-0.1l3.1-13.5l-2,0.7c-6.2,2.1-12.2,3.1-17.8,3.1c-4.4,0-18.9-0.9-18.9-13.1c0-12,14.1-15.9,27.7-19.8
		c7-2,13.6-3.9,17.9-6.8v49.4h17.4v-68C176.7,290.3,165.5,282.8,141.3,282.8"/>
	<path class="st2" d="M225.3,362.3c-7.6,0-10.6-4-10.6-13.8v-50.4h23.8v-13.4h-23.8v-18.8l-17.4,4v84.3c0,15.4,7.2,22.2,23.4,22.2
		c4.7,0,10.2-0.7,16.4-2.2l0.8-0.2l2.1-14.4l-2.2,0.5C233.6,361.3,229.6,362.3,225.3,362.3"/>
	<path class="st2" d="M295.6,296.1c8.8,0,16.4,2.2,23.5,4.5l1.8,0.6l-1.7-14.9l-0.8-0.2c-7.5-2.2-15.7-3.4-22.6-3.4
		c-30.6,0-46.1,15.7-46.1,46.8c0,21.6,12.1,46.9,46.1,46.9c6.6,0,14.2-0.9,21.8-2.5l0.8-0.2l1.9-15.5l-1.8,0.6
		c-5.7,1.9-12.9,3.8-22.8,4.2c-25,0-28.7-21.1-28.7-33.6C267.2,308,277.3,296.1,295.6,296.1"/>
	<path class="st2" d="M373.2,282.8c-34,0-46.1,25.2-46.1,46.8c0,21.7,12.1,46.9,46.1,46.9c33.9,0,45.9-25.3,45.9-46.9
		C419,308,407,282.8,373.2,282.8 M401.6,329.6c0,10.1-2.8,33.6-28.5,33.6c-24.9,0-28.7-21.1-28.7-33.6c0-21.6,10.1-33.4,28.5-33.4
		C391.7,296.1,401.6,307.7,401.6,329.6"/>
	<path class="st2" d="M534.2,282.8c-13.9,0-24.1,5.5-29.8,16c-4.3-10.3-13.9-16-27.4-16c-11.7,0-21.9,5.2-27.4,13.8v-11.8h-17.4
		v89.8h17.4v-49.8c0-16.4,9.4-27.8,22.8-27.8c10.7,0,16.6,5.5,16.6,15.4v62.1h17.4v-49.8c0-16.4,9.4-27.8,22.8-27.8
		c10.7,0,16.6,5.5,16.6,15.4v62.1h17.4v-66.7C563.3,292.4,552.1,282.8,534.2,282.8"/>
</g>
</svg>
